<svg width="126" height="51" viewBox="0 0 126 51" fill="none" xmlns="http://www.w3.org/2000/svg">
<path d="M28.1613 0.214895C30.3329 -0.264703 32.706 0.0479951 34.5937 1.2585C36.8459 2.69154 38.3384 5.06459 39.1959 7.54891C39.8059 9.3944 40.1704 11.3895 39.8174 13.3233C39.6889 14.0695 39.1652 15.0268 38.2635 14.835C37.5864 14.787 37.4099 14.0446 37.2813 13.5036C36.8017 11.2514 36.1111 8.96468 34.6608 7.13261C33.529 5.68039 31.8465 4.60225 29.9895 4.42768C28.1229 4.24351 26.2813 4.94565 24.7542 5.9739C22.9816 7.16906 21.5217 8.77092 20.2594 10.4821C19.7952 11.0749 19.3866 11.802 18.6614 12.107C18.0936 12.3276 17.6351 11.7252 17.6274 11.2092C17.5468 9.97183 18.1051 8.80929 18.6768 7.74841C20.7448 4.19939 24.079 1.14915 28.1613 0.214895Z" fill="#8C73B4"/>
<path d="M28.3474 6.33044C29.6212 5.82398 31.0772 6.34578 32.0364 7.24743C33.4388 8.52316 34.1505 10.6871 33.3793 12.4827C32.8786 13.7028 31.4456 14.3954 30.1718 14.0788C27.7872 13.5474 26.1604 10.9173 26.6093 8.54234C26.7877 7.58507 27.4189 6.68342 28.3474 6.33044Z" fill="#8C73B4"/>
<path d="M8.35004 7.78728C10.5121 7.51871 12.7527 7.64915 14.8227 8.3532C15.521 8.61602 16.2538 8.92489 16.7411 9.51575C16.9981 9.81886 17.119 10.3426 16.7411 10.6073C16.225 10.9085 15.59 10.7685 15.026 10.7378C12.7105 10.4347 10.255 10.3867 8.06995 11.3267C6.56593 11.9617 5.32281 13.2413 4.86815 14.8259C4.1948 17.1222 4.85664 19.5892 5.98274 21.6266C6.41246 22.4515 7.06855 23.1287 7.52896 23.9325C7.95293 24.6212 7.45223 25.7185 6.60046 25.6974C5.77363 25.6763 5.05232 25.1967 4.42117 24.7094C2.68503 23.284 1.39779 21.3503 0.615084 19.2535C-0.2386 16.9783 -0.290399 14.281 1.01411 12.1612C2.53923 9.58673 5.45135 8.14027 8.35004 7.78728Z" fill="#01B7CD"/>
<path d="M8.20999 13.2217C9.13849 12.7306 10.3317 12.934 11.1087 13.6227C12.559 14.8715 12.9062 17.1237 12.1273 18.833C11.6669 19.8517 10.6329 20.6996 9.46462 20.596C8.02391 20.5212 6.94769 19.2359 6.60238 17.9179C6.1247 16.2451 6.58511 14.1023 8.20999 13.2217Z" fill="#01B7CD"/>
<path d="M5.89642 26.648C6.65994 26.2086 7.73999 27.07 7.3659 27.9083C6.68871 29.892 5.88107 31.8909 5.86572 34.0223C5.79282 35.8754 6.32038 37.8053 7.5846 39.1981C8.88143 40.6445 10.8401 41.3006 12.7393 41.3908C15.1757 41.4944 17.5794 40.8613 19.8412 40.0038C20.4282 39.7947 21.0555 39.5472 21.6905 39.6738C22.1433 39.7793 22.2891 40.3453 22.1183 40.7366C21.7442 41.6958 20.8349 42.2982 20.0004 42.8296C17.4681 44.3087 14.5177 45.0472 11.5902 45.0357C8.86608 45.0108 6.03454 44.0861 4.15835 42.0392C2.50087 40.2685 1.86204 37.7612 1.95221 35.3824C2.06923 32.9441 2.75601 30.5097 4.06051 28.4378C4.53628 27.7261 5.09261 27.0009 5.89642 26.648Z" fill="#FAA71B"/>
<path d="M10.6943 31.051C11.7014 30.8036 12.7853 31.2026 13.451 31.9834C15.0375 33.8116 14.8361 36.9367 12.9944 38.5193C12.1101 39.302 10.7058 39.4517 9.71016 38.7937C6.99947 37.0172 7.49249 31.9872 10.6943 31.051Z" fill="#FAA71B"/>
<path d="M36.583 33.5685C37.1412 33.179 37.7743 33.7661 38.0602 34.2342C38.8755 35.6154 39.0577 37.2671 39.1095 38.8421C39.1536 42.0727 38.2443 45.4721 35.9749 47.8586C34.6186 49.3127 32.7424 50.293 30.753 50.4676C27.7219 50.7362 24.6832 49.541 22.3888 47.5958C21.6061 46.8898 20.7966 46.0591 20.6009 44.9829C20.4301 44.2194 21.3874 43.4386 22.0761 43.8933C22.9663 44.3901 23.7605 45.0501 24.6813 45.499C26.5632 46.5234 28.8231 47.0855 30.9333 46.485C32.7577 46.0016 34.2387 44.6069 35.054 42.9302C36.2012 40.6109 36.3643 37.9443 36.1897 35.4005C36.1974 34.7924 36.0535 34.0097 36.583 33.5685Z" fill="#F05A5B"/>
<path d="M28.3148 39.0764C30.2486 38.6217 32.7271 39.6289 33.1952 41.6988C33.5252 43.1664 32.3204 44.5092 30.9507 44.8315C29.3316 45.2881 27.4113 44.7721 26.3638 43.4234C25.7192 42.6177 25.5907 41.4091 26.1394 40.5228C26.6075 39.7478 27.4477 39.2682 28.3148 39.0764Z" fill="#F05A5B"/>
<path d="M23.528 30V25.28H25.4L28.152 30H30.024L27.144 25.104C28.472 24.672 29.384 23.488 29.384 22.08C29.384 20.24 27.928 18.8 26.024 18.8H21.848V30H23.528ZM25.8 20.272C26.92 20.272 27.688 21.072 27.688 22.08C27.688 23.072 26.92 23.856 25.8 23.856H23.528V20.272H25.8ZM38.9199 25.92C38.9199 23.568 36.9679 21.664 34.5359 21.664C32.1039 21.664 30.1519 23.568 30.1519 25.92C30.1519 28.272 32.1039 30.192 34.5359 30.192C36.9679 30.192 38.9199 28.272 38.9199 25.92ZM37.3039 25.92C37.3039 27.504 36.0719 28.752 34.5359 28.752C32.9999 28.752 31.7679 27.504 31.7679 25.92C31.7679 24.352 32.9999 23.104 34.5359 23.104C36.0719 23.104 37.3039 24.352 37.3039 25.92ZM48.6543 25.92C48.6543 23.568 46.7023 21.664 44.2703 21.664C41.8383 21.664 39.8863 23.568 39.8863 25.92C39.8863 28.272 41.8383 30.192 44.2703 30.192C46.7023 30.192 48.6543 28.272 48.6543 25.92ZM47.0383 25.92C47.0383 27.504 45.8063 28.752 44.2703 28.752C42.7343 28.752 41.5023 27.504 41.5023 25.92C41.5023 24.352 42.7343 23.104 44.2703 23.104C45.8063 23.104 47.0383 24.352 47.0383 25.92ZM51.5406 25.12C51.5406 23.936 52.3246 23.12 53.4446 23.12C54.5326 23.12 55.2686 23.92 55.2686 25.072V30H56.8846V25.12C56.8846 23.936 57.6686 23.12 58.7886 23.12C59.8766 23.12 60.6126 23.92 60.6126 25.072V30H62.2286V24.736C62.2286 23.024 60.9966 21.664 59.1886 21.664C58.0206 21.664 57.0446 22.256 56.5166 23.2C56.0366 22.272 55.0766 21.664 53.8446 21.664C52.9166 21.664 52.1006 22.048 51.5406 22.704V21.84H49.9246V30H51.5406V25.12ZM68.6188 25.12C68.6188 23.936 69.4028 23.12 70.5228 23.12C71.6108 23.12 72.3468 23.92 72.3468 25.072V30H73.9628V25.12C73.9628 23.936 74.7468 23.12 75.8668 23.12C76.9548 23.12 77.6908 23.92 77.6908 25.072V30H79.3068V24.736C79.3068 23.024 78.0748 21.664 76.2668 21.664C75.0988 21.664 74.1228 22.256 73.5948 23.2C73.1148 22.272 72.1548 21.664 70.9227 21.664C69.9948 21.664 69.1788 22.048 68.6188 22.704V21.84H67.0028V30H68.6188V25.12ZM80.5738 25.92C80.5738 28.352 82.4618 30.176 84.9098 30.176C86.3978 30.176 87.6138 29.52 88.4298 28.432L87.2618 27.568C86.6538 28.384 85.8538 28.768 84.9098 28.768C83.5338 28.768 82.4298 27.776 82.2057 26.448H88.8458V25.92C88.8458 23.488 87.1178 21.68 84.7658 21.68C82.3818 21.68 80.5738 23.616 80.5738 25.92ZM84.7338 23.088C85.9338 23.088 86.9418 23.92 87.2138 25.168H82.2378C82.5258 23.92 83.5338 23.088 84.7338 23.088ZM89.8081 25.92C89.8081 28.352 91.6961 30.176 94.1441 30.176C95.6321 30.176 96.8481 29.52 97.6641 28.432L96.4961 27.568C95.8881 28.384 95.0881 28.768 94.1441 28.768C92.7681 28.768 91.6641 27.776 91.4401 26.448H98.0801V25.92C98.0801 23.488 96.3521 21.68 94.0001 21.68C91.6161 21.68 89.8081 23.616 89.8081 25.92ZM93.9681 23.088C95.1681 23.088 96.1761 23.92 96.4481 25.168H91.4721C91.7601 23.92 92.7681 23.088 93.9681 23.088ZM102.055 30H103.607V28.576H102.535C102.039 28.576 101.735 28.336 101.735 27.888V23.264H103.607V21.84H101.735V19.44H100.119V21.84H98.567V23.264H100.119V28.24C100.119 29.264 100.807 30 102.055 30ZM105.397 20.704C105.925 20.704 106.341 20.272 106.341 19.728C106.341 19.2 105.925 18.768 105.397 18.768C104.853 18.768 104.421 19.2 104.421 19.728C104.421 20.272 104.853 20.704 105.397 20.704ZM106.197 21.84H104.581V30H106.197V21.84ZM114.92 24.784C114.92 23.04 113.656 21.664 111.784 21.664C110.808 21.664 109.96 22.064 109.384 22.736V21.84H107.768V30H109.384V25.152C109.384 23.936 110.216 23.12 111.384 23.12C112.536 23.12 113.304 23.92 113.304 25.104V30H114.92V24.784ZM124.887 21.84H123.271V22.848C122.535 22.112 121.543 21.664 120.423 21.664C118.071 21.664 116.183 23.52 116.183 25.856C116.183 28.224 118.055 30.08 120.423 30.08C121.527 30.08 122.519 29.648 123.255 28.928V30.128C123.255 31.248 122.679 31.84 121.511 31.84H119.815V33.216H121.863C123.719 33.216 124.887 32.08 124.887 30.256V21.84ZM117.783 25.856C117.783 24.336 119.015 23.088 120.535 23.088C122.055 23.088 123.287 24.32 123.287 25.856C123.287 27.408 122.071 28.656 120.535 28.656C119.015 28.656 117.783 27.424 117.783 25.856Z" fill="#57606A"/>
</svg>
